Coordinates
version=1
nRows=29
nColumns=24
inDegrees=yes

Units are S.I. units (second, meters, Newtons, ...)
Angles are in degrees.

endheader
time	pelvis_tilt	pelvis_list	pelvis_rotation	pelvis_tx	pelvis_ty	pelvis_tz	hip_flexion_r	hip_adduction_r	hip_rotation_r	knee_angle_r	ankle_angle_r	subtalar_angle_r	mtp_angle_r	hip_flexion_l	hip_adduction_l	hip_rotation_l	knee_angle_l	ankle_angle_l	subtalar_angle_l	mtp_angle_l	lumbar_extension	lumbar_bending	lumbar_rotation
      1.32533333	     -5.27725859	      1.68405755	     -5.93413968	      0.49243820	      1.07180770	      0.26712941	     24.40412223	     -3.18514845	     -2.51587370	    -64.80875452	      5.03324134	     -1.99140248	      5.10364185	     12.45677382	      2.70911657	     -0.13744240	    -14.67012972	     10.24161240	      1.48219380	     -1.19704103	     -7.62589303	     -3.31449211	     -0.16371641
      1.32950000	     -5.24108523	      1.60204240	     -5.82909614	      0.49751937	      1.07251583	      0.26683529	     24.77065136	     -3.10297485	     -2.72021706	    -64.11280428	      5.33228528	     -1.82516239	      5.16671025	     11.89076702	      2.68624876	     -0.02207220	    -14.19731460	     10.26134743	      1.50116797	     -1.16563835	     -7.63982397	     -3.16690054	     -0.34470974
      1.33366667	     -5.24047778	      1.52646124	     -5.72326356	      0.50261486	      1.07309139	      0.26655741	     25.16660146	     -3.02342080	     -2.92049349	    -63.39313482	      5.63105745	     -1.68731812	      5.21650669	     11.37451667	      2.66080197	      0.06863920	    -13.74814042	     10.27341699	      1.53492641	     -1.14000693	     -7.59831520	     -3.03475553	     -0.48200835
      1.33783333	     -5.21166297	      1.44458903	     -5.62392034	      0.50769029	      1.07368717	      0.26629631	     25.52087805	     -2.93801099	     -3.11344407	    -62.63654669	      5.90475434	     -1.57573499	      5.25955639	     10.82618661	      2.62890399	      0.16186217	    -13.29369217	     10.29875655	      1.56865571	     -1.11627675	     -7.59550529	     -2.89701117	     -0.62163682
      1.34200000	     -5.21695029	      1.38148995	     -5.53383277	      0.51275722	      1.07413995	      0.26605427	     25.91449978	     -2.86536867	     -3.28691049	    -61.87196096	      6.18086878	     -1.48569980	      5.29197114	     10.32003589	      2.60971874	      0.24119687	    -12.84640602	     10.31547091	      1.61782965	     -1.09806924	     -7.56298179	     -2.76132853	     -0.73637502
      1.34616667	     -5.18745809	      1.31146219	     -5.43821043	      0.51781475	      1.07462138	      0.26581944	     26.25245988	     -2.79210855	     -3.46662711	    -61.06530426	      6.43493312	     -1.38692231	      5.32874622	      9.77772829	      2.58693336	      0.34179590	    -12.40232272	     10.35120129	      1.61943381	     -1.07482726	     -7.55274559	     -2.64629758	     -0.89774926
      1.35033333	     -5.18684167	      1.25496902	     -5.35661595	      0.52286315	      1.07498058	      0.26561411	     26.62232868	     -2.72257333	     -3.62019354	    -60.24656000	      6.67690587	     -1.33667672	      5.35884560	      9.27051712	      2.57074769	      0.42495829	    -11.96481720	     10.37812874	      1.63515621	     -1.05410746	     -7.52096912	     -2.53090909	     -1.02663927
      1.35450000	     -5.16857496	      1.20984427	     -5.27376909	      0.52788883	      1.07531910	      0.26542005	     26.96639166	     -2.66784820	     -3.76789878	    -59.40688011	      6.90053892	     -1.30915033	      5.41798335	      8.73504934	      2.57194408	      0.57202709	    -11.49980575	     10.39198062	      1.56058919	     -1.00541212	     -7.51175781	     -2.43108789	     -1.24653577
      1.35866667	     -5.19201689	      1.16327000	     -5.19901001	      0.53291774	      1.07551585	      0.26525896	     27.34666322	     -2.60124290	     -3.90104026	    -58.54381840	      7.11558791	     -1.29473087	      5.46729198	      8.26429316	      2.55838009	      0.65802056	    -11.08158566	     10.43571786	      1.56150576	     -0.95903704	     -7.44684646	     -2.33170123	     -1.36195935
      1.36283333	     -5.23057937	      1.12210495	     -5.14007936	      0.53794034	      1.07563799	      0.26513737	     27.73814119	     -2.52890784	     -4.00886831	    -57.66003268	      7.32124272	     -1.30681200	      5.47892323	      7.81844886	      2.54097220	      0.68557280	    -10.67986170	     10.49830595	      1.64227601	     -0.94671301	     -7.36329363	     -2.23707087	     -1.39580502
      1.36700000	     -5.18974999	      1.06847070	     -5.06902252	      0.54292202	      1.07586173	      0.26499955	     28.02379847	     -2.45793341	     -4.12717982	    -56.73505352	      7.49003401	     -1.33308365	      5.50005712	      7.28493827	      2.52154097	      0.77296385	    -10.27291718	     10.56565159	      1.64123458	     -0.91811869	     -7.38536350	     -2.14137658	     -1.53683717
      1.37116667	     -5.23959655	      1.03816706	     -5.00648906	      0.54791515	      1.07585321	      0.26490350	     28.40844660	     -2.39331319	     -4.21680347	    -55.80533195	      7.66145676	     -1.39290434	      5.52016572	      6.85641496	      2.51474612	      0.85547424	     -9.87849278	     10.61519442	      1.63073569	     -0.88478931	     -7.28860878	     -2.06353873	     -1.65358597
      1.37533333	     -5.26157520	      1.01405367	     -4.95686151	      0.55288803	      1.07584790	      0.26485075	     28.75491981	     -2.32954790	     -4.28401692	    -54.85443823	      7.84841619	     -1.45828443	      5.52754723	      6.40726932	      2.50956318	      0.88115758	     -9.50234040	     10.66862334	      1.68397295	     -0.86935709	     -7.22672940	     -2.00574243	     -1.70486769
      1.37950000	     -5.27789181	      0.99463567	     -4.90797056	      0.55783734	      1.07578224	      0.26480263	     29.08947931	     -2.27093296	     -4.34535212	    -53.88577342	      7.97362156	     -1.56533542	      5.53440160	      5.94690251	      2.51185605	      0.95596599	     -9.11356575	     10.75030364	      1.68781785	     -0.84256663	     -7.18282184	     -1.94194413	     -1.80871259
      1.38366667	     -5.29465314	      0.97901006	     -4.86151810	      0.56277097	      1.07567568	      0.26478062	     29.41324945	     -2.20936510	     -4.38644786	    -52.89312570	      8.10992871	     -1.68747001	      5.53910374	      5.49372621	      2.51475743	      1.01924022	     -8.73613681	     10.81353957	      1.69866661	     -0.81381221	     -7.13948236	     -1.89130544	     -1.89576090
      1.38783333	     -5.31330275	      0.97408090	     -4.82332983	      0.56769582	      1.07550975	      0.26478299	     29.73333399	     -2.15521057	     -4.41435673	    -51.88526574	      8.23377612	     -1.81448424	      5.53928195	      5.04723586	      2.52569083	      1.06218094	     -8.36799040	     10.89036450	      1.72188413	     -0.78957088	     -7.08846940	     -1.85333071	     -1.96299312
      1.39200000	     -5.35691543	      0.97934752	     -4.78965392	      0.57262427	      1.07524297	      0.26481338	     30.07209559	     -2.10212003	     -4.41794620	    -50.86232879	      8.37044709	     -1.94292083	      5.53750222	      4.63469026	      2.54187560	      1.08741611	     -8.01565784	     10.96138062	      1.76576205	     -0.77394722	     -7.00849702	     -1.82822665	     -2.01218438
      1.39616667	     -5.37938484	      0.99732547	     -4.75686035	      0.57752220	      1.07495655	      0.26485980	     30.38387144	     -2.06153887	     -4.41201583	    -49.82595612	      8.43993789	     -2.13153685	      5.53132969	      4.19394896	      2.57447036	      1.15313964	     -7.64810852	     11.04947847	      1.76320530	     -0.74673649	     -6.96172520	     -1.81990981	     -2.09514833
      1.40033333	     -5.41424468	      1.01464706	     -4.73014184	      0.58242653	      1.07460268	      0.26492456	     30.69574567	     -2.01407697	     -4.38862742	    -48.76768116	      8.55390847	     -2.27628591	      5.52647463	      3.77504262	      2.60120009	      1.17857834	     -7.30029621	     11.12535980	      1.80067544	     -0.72981856	     -6.89220627	     -1.81015091	     -2.14140283
      1.40450000	     -5.44045404	      1.04500690	     -4.70490956	      0.58732249	      1.07421053	      0.26500732	     30.99237940	     -1.97704456	     -4.35207151	    -47.69791598	      8.62701641	     -2.45934233	      5.51888402	      3.34419762	      2.64228283	      1.21914964	     -6.94581113	     11.21314361	      1.82417341	     -0.71054766	     -6.84084554	     -1.81486656	     -2.19811014
      1.40866667	     -5.49050621	      1.11730452	     -4.68835582	      0.59220967	      1.07367849	      0.26512019	     31.32716825	     -1.98116188	     -4.29826537	    -46.65129758	      8.74304178	     -2.55086936	      5.51572664	      2.94447161	      2.72401349	      1.24284246	     -6.59773696	     11.33522211	      1.89751455	     -0.70137889	     -6.74904101	     -1.88083828	     -2.23353891
      1.41283333	     -5.50670838	      1.12802906	     -4.66776613	      0.59710652	      1.07324660	      0.26524612	     31.57701552	     -1.91289066	     -4.24155364	    -45.51941174	      8.77643904	     -2.79796616	      5.50566537	      2.50297278	      2.73911859	      1.26907269	     -6.24869448	     11.39129594	      1.89850206	     -0.68593399	     -6.72951537	     -1.86032699	     -2.29063874
      1.41700000	     -5.53891618	      1.17281795	     -4.64706136	      0.60201088	      1.07270962	      0.26536664	     31.84845909	     -1.88188872	     -4.17019098	    -44.39998090	      8.82421802	     -2.97140285	      5.49790663	      2.07830399	      2.79155741	      1.31566541	     -5.89753664	     11.48414474	      1.91806678	     -0.66991311	     -6.66548260	     -1.88202860	     -2.33967203
      1.42116667	     -5.56652184	      1.24799907	     -4.62844511	      0.60688454	      1.07211394	      0.26551111	     32.11942829	     -1.88062098	     -4.08501914	    -43.28656230	      8.83630765	     -3.15756254	      5.48833264	      1.64766160	      2.87680592	      1.39138809	     -5.53733768	     11.57542105	      1.89231455	     -0.64420964	     -6.61781953	     -1.95330443	     -2.40029097
      1.42533333	     -5.61725573	      1.34157118	     -4.61648255	      0.61179049	      1.07139742	      0.26566784	     32.41686187	     -1.89879681	     -4.00019821	    -42.18898265	      8.94160459	     -3.20076497	      5.48657324	      1.24749523	      2.97723616	      1.41205454	     -5.19033945	     11.69450500	      1.96405694	     -0.63513929	     -6.53037705	     -2.04219661	     -2.43288592
      1.42950000	     -5.62154517	      1.38109975	     -4.59905203	      0.61670351	      1.07079568	      0.26582774	     32.61755912	     -1.85730146	     -3.90872112	    -41.01159859	      8.94524058	     -3.37708162	      5.48113671	      0.79078637	      3.02153605	      1.45047667	     -4.84062384	     11.75984635	      1.95658780	     -0.61820254	     -6.52135017	     -2.05706141	     -2.47803482
      1.43366667	     -5.66518098	      1.49045001	     -4.58534088	      0.62161724	      1.07001043	      0.26600224	     32.89007291	     -1.89082987	     -3.81154062	    -39.89443856	      9.01640188	     -3.40070680	      5.48045068	      0.38291948	      3.13829040	      1.48699335	     -4.49524964	     11.88690543	      2.02081834	     -0.60883820	     -6.44191559	     -2.16362036	     -2.51353739
      1.43783333	     -5.64650733	      1.54992802	     -4.56179241	      0.62652108	      1.06936600	      0.26617221	     33.04913319	     -1.87337220	     -3.70784122	    -38.69858542	      8.99231333	     -3.54885553	      5.48325757	     -0.10294542	      3.20590810	      1.57956021	     -4.13519602	     11.94715394	      1.95655368	     -0.58581272	     -6.45937147	     -2.20469830	     -2.56932800
      1.44200000	     -5.70181011	      1.65860732	     -4.54926435	      0.63146873	      1.06847742	      0.26636066	     33.31157849	     -1.90438968	     -3.60650845	    -37.56094790	      9.06850640	     -3.50606328	      5.48609068	     -0.49771373	      3.31908608	      1.60290268	     -3.79686237	     12.06680074	      2.02069196	     -0.57733125	     -6.36823314	     -2.31124532	     -2.60184929
